<?xml version="1.0" ?><svg data-name="Layer 2" id="Layer_2" viewBox="0 0 512 512" xmlns="http://www.w3.org/2000/svg"><defs><style>.cls-1{fill:#fff;}</style></defs><title/><path d="M130.5107,349.7129q-1.86,0-3.7744-.1133a65.1856,65.1856,0,0,1-31.3047-10.4238,4,4,0,0,1,.33-6.9131,156.3788,156.3788,0,0,0,28.6421-19.0947h0c2.5767-2.1651,5.1109-4.44,7.565-6.791a121.296,121.296,0,1,1,37.84,30.0459C160.7974,342.9131,147.3384,349.7129,130.5107,349.7129ZM105.8242,335.88a56.2853,56.2853,0,0,0,21.3916,5.7334c17.5059,1.0459,31.2905-6.5254,39.7759-13.0674a4.002,4.002,0,0,1,4.333-.3574,113.6254,113.6254,0,1,0-30.89-24.2676,3.9991,3.9991,0,0,1-.1407,5.4941c-3.4311,3.4483-7.0463,6.7715-10.7451,9.878A164.283,164.283,0,0,1,105.8242,335.88Z"/><path class="cls-1" d="M385.024,371.9205c-3.85-3.2337-7.3339-6.4727-10.4832-9.6374a117.2826,117.2826,0,1,0-31.9747,25.12c8.1918,6.3156,23.1368,15.054,42.4579,13.8933a61.1947,61.1947,0,0,0,29.376-9.792A160.1125,160.1125,0,0,1,385.024,371.9205Z"/><path d="M381.4922,405.4033c-16.83,0-30.2891-6.8008-39.3008-13.291a121.609,121.609,0,1,1,37.84-30.0449c2.45,2.3467,4.9848,4.6221,7.5659,6.791a156.44,156.44,0,0,0,28.6416,19.0947,3.9993,3.9993,0,0,1,.3291,6.9131A65.2059,65.2059,0,0,1,385.2637,405.29Q383.3514,405.4043,381.4922,405.4033Zm-38.9268-22a3.9989,3.9989,0,0,1,2.4429.8321c8.4854,6.5419,22.273,14.1142,39.7759,13.0683a56.29,56.29,0,0,0,21.3911-5.7344,164.3071,164.3071,0,0,1-23.7241-16.5859h0c-3.7066-3.1143-7.3218-6.4385-10.7451-9.8789a4,4,0,0,1-.14-5.4941,113.2916,113.2916,0,1,0-30.89,24.2675A4.0047,4.0047,0,0,1,342.5654,383.4033Z"/><path d="M256,8a248.0676,248.0676,0,0,1,96.53,476.5143A248.0663,248.0663,0,0,1,159.47,27.4858,246.44,246.44,0,0,1,256,8m0-8C114.6151,0,0,114.6151,0,256S114.6151,512,256,512,512,397.3849,512,256,397.3849,0,256,0Z"/></svg>